<mxfile host="Electron" modified="2024-04-01T19:48:39.251Z" agent="Mozilla/5.0 (Windows NT 10.0; Win64; x64) AppleWebKit/537.36 (KHTML, like Gecko) draw.io/22.1.2 Chrome/114.0.5735.289 Electron/25.9.4 Safari/537.36" etag="9LR4tLsgMg_h9AKMP7Ju" version="22.1.2" type="device">
  <diagram name="Страница — 1" id="gn3vwvSYGlTgpJcXcL00">
    <mxGraphModel dx="1985" dy="2151" grid="1" gridSize="10" guides="1" tooltips="1" connect="1" arrows="1" fold="1" page="1" pageScale="1" pageWidth="827" pageHeight="1169" math="0" shadow="0">
      <root>
        <mxCell id="0" />
        <mxCell id="1" parent="0" />
        <mxCell id="1gMiAJtmRg7pK_HbUT3S-22" style="rounded=0;orthogonalLoop=1;jettySize=auto;html=1;" parent="1" source="1gMiAJtmRg7pK_HbUT3S-2" target="1gMiAJtmRg7pK_HbUT3S-14" edge="1">
          <mxGeometry relative="1" as="geometry" />
        </mxCell>
        <mxCell id="1gMiAJtmRg7pK_HbUT3S-23" style="rounded=0;orthogonalLoop=1;jettySize=auto;html=1;" parent="1" source="1gMiAJtmRg7pK_HbUT3S-2" target="1gMiAJtmRg7pK_HbUT3S-15" edge="1">
          <mxGeometry relative="1" as="geometry" />
        </mxCell>
        <mxCell id="1gMiAJtmRg7pK_HbUT3S-71" style="rounded=0;orthogonalLoop=1;jettySize=auto;html=1;" parent="1" source="1gMiAJtmRg7pK_HbUT3S-2" target="1gMiAJtmRg7pK_HbUT3S-70" edge="1">
          <mxGeometry relative="1" as="geometry" />
        </mxCell>
        <mxCell id="PjaqXVNd-_tq1s7yIGA_-1" style="rounded=0;orthogonalLoop=1;jettySize=auto;html=1;" parent="1" source="1gMiAJtmRg7pK_HbUT3S-2" target="1gMiAJtmRg7pK_HbUT3S-17" edge="1">
          <mxGeometry relative="1" as="geometry" />
        </mxCell>
        <mxCell id="1gMiAJtmRg7pK_HbUT3S-2" value="User" style="shape=umlActor;verticalLabelPosition=bottom;verticalAlign=top;html=1;" parent="1" vertex="1">
          <mxGeometry x="2000" y="300" width="30" height="60" as="geometry" />
        </mxCell>
        <mxCell id="1gMiAJtmRg7pK_HbUT3S-14" value="create project" style="ellipse;whiteSpace=wrap;html=1;" parent="1" vertex="1">
          <mxGeometry x="1200" y="-20" width="120" height="60" as="geometry" />
        </mxCell>
        <mxCell id="1gMiAJtmRg7pK_HbUT3S-15" value="delete account" style="ellipse;whiteSpace=wrap;html=1;" parent="1" vertex="1">
          <mxGeometry x="1400" y="540" width="120" height="60" as="geometry" />
        </mxCell>
        <mxCell id="1gMiAJtmRg7pK_HbUT3S-17" value="join project" style="ellipse;whiteSpace=wrap;html=1;" parent="1" vertex="1">
          <mxGeometry x="1400" y="-20" width="120" height="60" as="geometry" />
        </mxCell>
        <mxCell id="1gMiAJtmRg7pK_HbUT3S-45" style="rounded=0;orthogonalLoop=1;jettySize=auto;html=1;" parent="1" source="1gMiAJtmRg7pK_HbUT3S-37" target="1gMiAJtmRg7pK_HbUT3S-42" edge="1">
          <mxGeometry relative="1" as="geometry" />
        </mxCell>
        <mxCell id="1gMiAJtmRg7pK_HbUT3S-46" style="rounded=0;orthogonalLoop=1;jettySize=auto;html=1;" parent="1" source="1gMiAJtmRg7pK_HbUT3S-37" target="1gMiAJtmRg7pK_HbUT3S-44" edge="1">
          <mxGeometry relative="1" as="geometry" />
        </mxCell>
        <mxCell id="1gMiAJtmRg7pK_HbUT3S-47" style="rounded=0;orthogonalLoop=1;jettySize=auto;html=1;" parent="1" source="1gMiAJtmRg7pK_HbUT3S-37" target="1gMiAJtmRg7pK_HbUT3S-43" edge="1">
          <mxGeometry relative="1" as="geometry" />
        </mxCell>
        <mxCell id="1gMiAJtmRg7pK_HbUT3S-37" value="System Manager" style="shape=umlActor;verticalLabelPosition=bottom;verticalAlign=top;html=1;" parent="1" vertex="1">
          <mxGeometry x="490" y="220" width="30" height="60" as="geometry" />
        </mxCell>
        <mxCell id="1gMiAJtmRg7pK_HbUT3S-38" value="System Administrator" style="shape=umlActor;verticalLabelPosition=bottom;verticalAlign=top;html=1;" parent="1" vertex="1">
          <mxGeometry x="490" y="-610" width="30" height="60" as="geometry" />
        </mxCell>
        <mxCell id="1gMiAJtmRg7pK_HbUT3S-42" value="get users list" style="ellipse;whiteSpace=wrap;html=1;" parent="1" vertex="1">
          <mxGeometry x="1000" y="-20" width="120" height="60" as="geometry" />
        </mxCell>
        <mxCell id="1gMiAJtmRg7pK_HbUT3S-43" value="create post" style="ellipse;whiteSpace=wrap;html=1;" parent="1" vertex="1">
          <mxGeometry x="1000" y="300" width="120" height="60" as="geometry" />
        </mxCell>
        <mxCell id="1gMiAJtmRg7pK_HbUT3S-44" value="update post" style="ellipse;whiteSpace=wrap;html=1;" parent="1" vertex="1">
          <mxGeometry x="1000" y="380" width="120" height="60" as="geometry" />
        </mxCell>
        <mxCell id="1gMiAJtmRg7pK_HbUT3S-57" value="create report, diagram" style="ellipse;whiteSpace=wrap;html=1;" parent="1" vertex="1">
          <mxGeometry x="760" y="540" width="120" height="60" as="geometry" />
        </mxCell>
        <mxCell id="1gMiAJtmRg7pK_HbUT3S-58" value="&amp;lt;&amp;lt;extend&amp;gt;&amp;gt;" style="endArrow=open;endSize=12;dashed=1;html=1;rounded=0;" parent="1" source="1gMiAJtmRg7pK_HbUT3S-57" target="PjaqXVNd-_tq1s7yIGA_-22" edge="1">
          <mxGeometry width="160" relative="1" as="geometry">
            <mxPoint x="380" y="-140" as="sourcePoint" />
            <mxPoint x="120" y="-90" as="targetPoint" />
          </mxGeometry>
        </mxCell>
        <mxCell id="1gMiAJtmRg7pK_HbUT3S-70" value="update profile" style="ellipse;whiteSpace=wrap;html=1;" parent="1" vertex="1">
          <mxGeometry x="1400" y="460" width="120" height="60" as="geometry" />
        </mxCell>
        <mxCell id="1gMiAJtmRg7pK_HbUT3S-75" value="buy subscription" style="ellipse;whiteSpace=wrap;html=1;" parent="1" vertex="1">
          <mxGeometry x="1400" y="700" width="120" height="60" as="geometry" />
        </mxCell>
        <mxCell id="1gMiAJtmRg7pK_HbUT3S-77" value="Online Bank System" style="shape=umlActor;verticalLabelPosition=bottom;verticalAlign=top;html=1;" parent="1" vertex="1">
          <mxGeometry x="490" y="700" width="30" height="60" as="geometry" />
        </mxCell>
        <mxCell id="1gMiAJtmRg7pK_HbUT3S-78" style="rounded=0;orthogonalLoop=1;jettySize=auto;html=1;" parent="1" source="1gMiAJtmRg7pK_HbUT3S-77" target="1gMiAJtmRg7pK_HbUT3S-75" edge="1">
          <mxGeometry relative="1" as="geometry">
            <mxPoint x="660" y="560" as="sourcePoint" />
            <mxPoint x="880" y="600" as="targetPoint" />
          </mxGeometry>
        </mxCell>
        <mxCell id="1gMiAJtmRg7pK_HbUT3S-79" value="pay data" style="ellipse;whiteSpace=wrap;html=1;" parent="1" vertex="1">
          <mxGeometry x="1640" y="700" width="120" height="60" as="geometry" />
        </mxCell>
        <mxCell id="1gMiAJtmRg7pK_HbUT3S-81" value="&amp;lt;&amp;lt;include&amp;gt;&amp;gt;" style="endArrow=open;endSize=12;dashed=1;html=1;rounded=0;" parent="1" source="1gMiAJtmRg7pK_HbUT3S-75" target="1gMiAJtmRg7pK_HbUT3S-79" edge="1">
          <mxGeometry width="160" relative="1" as="geometry">
            <mxPoint x="480" y="890" as="sourcePoint" />
            <mxPoint x="480" y="950" as="targetPoint" />
          </mxGeometry>
        </mxCell>
        <mxCell id="1gMiAJtmRg7pK_HbUT3S-82" value="UnAuthorized" style="shape=umlActor;verticalLabelPosition=bottom;verticalAlign=top;html=1;" parent="1" vertex="1">
          <mxGeometry x="490" y="-899" width="30" height="60" as="geometry" />
        </mxCell>
        <mxCell id="1gMiAJtmRg7pK_HbUT3S-83" value="authorization" style="ellipse;whiteSpace=wrap;html=1;" parent="1" vertex="1">
          <mxGeometry x="1000" y="-940" width="120" height="60" as="geometry" />
        </mxCell>
        <mxCell id="1gMiAJtmRg7pK_HbUT3S-84" value="registration" style="ellipse;whiteSpace=wrap;html=1;" parent="1" vertex="1">
          <mxGeometry x="1000" y="-860" width="120" height="60" as="geometry" />
        </mxCell>
        <mxCell id="1gMiAJtmRg7pK_HbUT3S-85" value="log_out" style="ellipse;whiteSpace=wrap;html=1;" parent="1" vertex="1">
          <mxGeometry x="1000" y="-1060" width="120" height="60" as="geometry" />
        </mxCell>
        <mxCell id="1gMiAJtmRg7pK_HbUT3S-86" value="invalid_data" style="ellipse;whiteSpace=wrap;html=1;" parent="1" vertex="1">
          <mxGeometry x="1200" y="-859" width="120" height="60" as="geometry" />
        </mxCell>
        <mxCell id="1gMiAJtmRg7pK_HbUT3S-87" style="rounded=0;orthogonalLoop=1;jettySize=auto;html=1;" parent="1" source="1gMiAJtmRg7pK_HbUT3S-82" target="1gMiAJtmRg7pK_HbUT3S-83" edge="1">
          <mxGeometry relative="1" as="geometry">
            <mxPoint x="2770" y="-1082" as="sourcePoint" />
            <mxPoint x="2568" y="-1112" as="targetPoint" />
          </mxGeometry>
        </mxCell>
        <mxCell id="1gMiAJtmRg7pK_HbUT3S-88" style="rounded=0;orthogonalLoop=1;jettySize=auto;html=1;" parent="1" source="1gMiAJtmRg7pK_HbUT3S-82" target="1gMiAJtmRg7pK_HbUT3S-84" edge="1">
          <mxGeometry relative="1" as="geometry">
            <mxPoint x="2770" y="-1403" as="sourcePoint" />
            <mxPoint x="2646" y="-1429" as="targetPoint" />
          </mxGeometry>
        </mxCell>
        <mxCell id="1gMiAJtmRg7pK_HbUT3S-89" value="&amp;lt;&amp;lt;extend&amp;gt;&amp;gt;" style="endArrow=open;endSize=12;dashed=1;html=1;rounded=0;" parent="1" source="1gMiAJtmRg7pK_HbUT3S-85" target="1gMiAJtmRg7pK_HbUT3S-83" edge="1">
          <mxGeometry width="160" relative="1" as="geometry">
            <mxPoint x="2650" y="-1600" as="sourcePoint" />
            <mxPoint x="2650" y="-1540" as="targetPoint" />
          </mxGeometry>
        </mxCell>
        <mxCell id="1gMiAJtmRg7pK_HbUT3S-90" value="&amp;lt;&amp;lt;extend&amp;gt;&amp;gt;" style="endArrow=open;endSize=12;dashed=1;html=1;rounded=0;" parent="1" source="1gMiAJtmRg7pK_HbUT3S-86" target="1gMiAJtmRg7pK_HbUT3S-84" edge="1">
          <mxGeometry width="160" relative="1" as="geometry">
            <mxPoint x="2550" y="-1530" as="sourcePoint" />
            <mxPoint x="2550" y="-1470" as="targetPoint" />
          </mxGeometry>
        </mxCell>
        <mxCell id="1gMiAJtmRg7pK_HbUT3S-92" value="wrong password or username" style="ellipse;whiteSpace=wrap;html=1;" parent="1" vertex="1">
          <mxGeometry x="1200" y="-940" width="120" height="60" as="geometry" />
        </mxCell>
        <mxCell id="1gMiAJtmRg7pK_HbUT3S-93" value="&amp;lt;&amp;lt;extend&amp;gt;&amp;gt;" style="endArrow=open;endSize=12;dashed=1;html=1;rounded=0;" parent="1" source="1gMiAJtmRg7pK_HbUT3S-92" target="1gMiAJtmRg7pK_HbUT3S-83" edge="1">
          <mxGeometry width="160" relative="1" as="geometry">
            <mxPoint x="2490" y="-1360" as="sourcePoint" />
            <mxPoint x="2570" y="-1360" as="targetPoint" />
          </mxGeometry>
        </mxCell>
        <mxCell id="1gMiAJtmRg7pK_HbUT3S-94" value="&amp;lt;&amp;lt;include&amp;gt;&amp;gt;" style="endArrow=open;endSize=12;dashed=1;html=1;rounded=0;" parent="1" source="1gMiAJtmRg7pK_HbUT3S-84" target="PjaqXVNd-_tq1s7yIGA_-50" edge="1">
          <mxGeometry width="160" relative="1" as="geometry">
            <mxPoint x="2680" y="-1610" as="sourcePoint" />
            <mxPoint x="2620" y="-1520" as="targetPoint" />
          </mxGeometry>
        </mxCell>
        <mxCell id="PjaqXVNd-_tq1s7yIGA_-3" value="write message" style="ellipse;whiteSpace=wrap;html=1;" parent="1" vertex="1">
          <mxGeometry x="1400" y="300" width="120" height="60" as="geometry" />
        </mxCell>
        <mxCell id="PjaqXVNd-_tq1s7yIGA_-6" style="rounded=0;orthogonalLoop=1;jettySize=auto;html=1;" parent="1" source="1gMiAJtmRg7pK_HbUT3S-2" target="PjaqXVNd-_tq1s7yIGA_-3" edge="1">
          <mxGeometry relative="1" as="geometry">
            <mxPoint x="440" y="332" as="sourcePoint" />
            <mxPoint x="598" y="455" as="targetPoint" />
          </mxGeometry>
        </mxCell>
        <mxCell id="PjaqXVNd-_tq1s7yIGA_-8" style="rounded=0;orthogonalLoop=1;jettySize=auto;html=1;" parent="1" source="1gMiAJtmRg7pK_HbUT3S-2" target="1gMiAJtmRg7pK_HbUT3S-75" edge="1">
          <mxGeometry relative="1" as="geometry">
            <mxPoint x="440" y="343" as="sourcePoint" />
            <mxPoint x="612" y="611" as="targetPoint" />
          </mxGeometry>
        </mxCell>
        <mxCell id="PjaqXVNd-_tq1s7yIGA_-9" value="show profile" style="ellipse;whiteSpace=wrap;html=1;" parent="1" vertex="1">
          <mxGeometry x="1400" y="380" width="120" height="60" as="geometry" />
        </mxCell>
        <mxCell id="PjaqXVNd-_tq1s7yIGA_-10" value="confirm skills" style="ellipse;whiteSpace=wrap;html=1;" parent="1" vertex="1">
          <mxGeometry x="1400" y="620" width="120" height="60" as="geometry" />
        </mxCell>
        <mxCell id="PjaqXVNd-_tq1s7yIGA_-11" style="rounded=0;orthogonalLoop=1;jettySize=auto;html=1;" parent="1" source="1gMiAJtmRg7pK_HbUT3S-2" target="PjaqXVNd-_tq1s7yIGA_-10" edge="1">
          <mxGeometry relative="1" as="geometry">
            <mxPoint x="330" y="442" as="sourcePoint" />
            <mxPoint x="572" y="473" as="targetPoint" />
          </mxGeometry>
        </mxCell>
        <mxCell id="PjaqXVNd-_tq1s7yIGA_-12" style="rounded=0;orthogonalLoop=1;jettySize=auto;html=1;" parent="1" source="1gMiAJtmRg7pK_HbUT3S-2" target="PjaqXVNd-_tq1s7yIGA_-9" edge="1">
          <mxGeometry relative="1" as="geometry">
            <mxPoint x="330" y="441" as="sourcePoint" />
            <mxPoint x="730" y="457" as="targetPoint" />
          </mxGeometry>
        </mxCell>
        <mxCell id="PjaqXVNd-_tq1s7yIGA_-19" value="get projects list" style="ellipse;whiteSpace=wrap;html=1;" parent="1" vertex="1">
          <mxGeometry x="1200" y="140" width="120" height="60" as="geometry" />
        </mxCell>
        <mxCell id="PjaqXVNd-_tq1s7yIGA_-20" value="get user data" style="ellipse;whiteSpace=wrap;html=1;" parent="1" vertex="1">
          <mxGeometry x="1000" y="-100" width="120" height="60" as="geometry" />
        </mxCell>
        <mxCell id="PjaqXVNd-_tq1s7yIGA_-21" value="get project data" style="ellipse;whiteSpace=wrap;html=1;" parent="1" vertex="1">
          <mxGeometry x="1000" y="60" width="120" height="60" as="geometry" />
        </mxCell>
        <mxCell id="PjaqXVNd-_tq1s7yIGA_-22" value="get system statistics" style="ellipse;whiteSpace=wrap;html=1;" parent="1" vertex="1">
          <mxGeometry x="1000" y="540" width="120" height="60" as="geometry" />
        </mxCell>
        <mxCell id="PjaqXVNd-_tq1s7yIGA_-23" value="delete post" style="ellipse;whiteSpace=wrap;html=1;" parent="1" vertex="1">
          <mxGeometry x="1000" y="460" width="120" height="60" as="geometry" />
        </mxCell>
        <mxCell id="PjaqXVNd-_tq1s7yIGA_-24" style="rounded=0;orthogonalLoop=1;jettySize=auto;html=1;" parent="1" source="1gMiAJtmRg7pK_HbUT3S-37" target="PjaqXVNd-_tq1s7yIGA_-23" edge="1">
          <mxGeometry relative="1" as="geometry">
            <mxPoint x="170" y="-247" as="sourcePoint" />
            <mxPoint x="596" y="-449" as="targetPoint" />
          </mxGeometry>
        </mxCell>
        <mxCell id="PjaqXVNd-_tq1s7yIGA_-25" style="rounded=0;orthogonalLoop=1;jettySize=auto;html=1;" parent="1" source="1gMiAJtmRg7pK_HbUT3S-37" target="PjaqXVNd-_tq1s7yIGA_-22" edge="1">
          <mxGeometry relative="1" as="geometry">
            <mxPoint x="170" y="-245" as="sourcePoint" />
            <mxPoint x="735" y="-443" as="targetPoint" />
          </mxGeometry>
        </mxCell>
        <mxCell id="PjaqXVNd-_tq1s7yIGA_-26" style="rounded=0;orthogonalLoop=1;jettySize=auto;html=1;" parent="1" source="1gMiAJtmRg7pK_HbUT3S-37" target="PjaqXVNd-_tq1s7yIGA_-21" edge="1">
          <mxGeometry relative="1" as="geometry">
            <mxPoint x="170" y="-243" as="sourcePoint" />
            <mxPoint x="734" y="-359" as="targetPoint" />
          </mxGeometry>
        </mxCell>
        <mxCell id="PjaqXVNd-_tq1s7yIGA_-28" style="rounded=0;orthogonalLoop=1;jettySize=auto;html=1;" parent="1" source="1gMiAJtmRg7pK_HbUT3S-37" target="PjaqXVNd-_tq1s7yIGA_-20" edge="1">
          <mxGeometry relative="1" as="geometry">
            <mxPoint x="170" y="-241" as="sourcePoint" />
            <mxPoint x="730" y="-276" as="targetPoint" />
          </mxGeometry>
        </mxCell>
        <mxCell id="PjaqXVNd-_tq1s7yIGA_-29" style="rounded=0;orthogonalLoop=1;jettySize=auto;html=1;" parent="1" source="1gMiAJtmRg7pK_HbUT3S-37" target="PjaqXVNd-_tq1s7yIGA_-19" edge="1">
          <mxGeometry relative="1" as="geometry">
            <mxPoint x="170" y="-239" as="sourcePoint" />
            <mxPoint x="731" y="-186" as="targetPoint" />
          </mxGeometry>
        </mxCell>
        <mxCell id="PjaqXVNd-_tq1s7yIGA_-30" style="rounded=0;orthogonalLoop=1;jettySize=auto;html=1;" parent="1" source="1gMiAJtmRg7pK_HbUT3S-2" target="PjaqXVNd-_tq1s7yIGA_-19" edge="1">
          <mxGeometry relative="1" as="geometry">
            <mxPoint x="170" y="599" as="sourcePoint" />
            <mxPoint x="611" y="565" as="targetPoint" />
          </mxGeometry>
        </mxCell>
        <mxCell id="PjaqXVNd-_tq1s7yIGA_-33" value="watch post" style="ellipse;whiteSpace=wrap;html=1;" parent="1" vertex="1">
          <mxGeometry x="1200" y="220" width="120" height="60" as="geometry" />
        </mxCell>
        <mxCell id="PjaqXVNd-_tq1s7yIGA_-34" style="rounded=0;orthogonalLoop=1;jettySize=auto;html=1;" parent="1" source="1gMiAJtmRg7pK_HbUT3S-2" target="PjaqXVNd-_tq1s7yIGA_-33" edge="1">
          <mxGeometry relative="1" as="geometry">
            <mxPoint x="170" y="609" as="sourcePoint" />
            <mxPoint x="712" y="937" as="targetPoint" />
          </mxGeometry>
        </mxCell>
        <mxCell id="PjaqXVNd-_tq1s7yIGA_-35" style="rounded=0;orthogonalLoop=1;jettySize=auto;html=1;" parent="1" source="1gMiAJtmRg7pK_HbUT3S-38" target="1gMiAJtmRg7pK_HbUT3S-14" edge="1">
          <mxGeometry relative="1" as="geometry">
            <mxPoint x="1050" y="61" as="sourcePoint" />
            <mxPoint x="780" y="130" as="targetPoint" />
          </mxGeometry>
        </mxCell>
        <mxCell id="PjaqXVNd-_tq1s7yIGA_-48" style="rounded=0;orthogonalLoop=1;jettySize=auto;html=1;" parent="1" source="1gMiAJtmRg7pK_HbUT3S-38" target="PjaqXVNd-_tq1s7yIGA_-50" edge="1">
          <mxGeometry relative="1" as="geometry">
            <mxPoint x="1051" y="90" as="sourcePoint" />
            <mxPoint x="1020" y="580" as="targetPoint" />
          </mxGeometry>
        </mxCell>
        <mxCell id="PjaqXVNd-_tq1s7yIGA_-49" style="rounded=0;orthogonalLoop=1;jettySize=auto;html=1;" parent="1" source="1gMiAJtmRg7pK_HbUT3S-38" target="PjaqXVNd-_tq1s7yIGA_-51" edge="1">
          <mxGeometry relative="1" as="geometry">
            <mxPoint x="1053" y="90" as="sourcePoint" />
            <mxPoint x="990" y="440" as="targetPoint" />
          </mxGeometry>
        </mxCell>
        <mxCell id="PjaqXVNd-_tq1s7yIGA_-50" value="create user account" style="ellipse;whiteSpace=wrap;html=1;" parent="1" vertex="1">
          <mxGeometry x="1000" y="-740" width="120" height="60" as="geometry" />
        </mxCell>
        <mxCell id="PjaqXVNd-_tq1s7yIGA_-51" value="create manager account" style="ellipse;whiteSpace=wrap;html=1;" parent="1" vertex="1">
          <mxGeometry x="1000" y="-660" width="120" height="60" as="geometry" />
        </mxCell>
        <mxCell id="PjaqXVNd-_tq1s7yIGA_-53" value="make changes at project" style="ellipse;whiteSpace=wrap;html=1;" parent="1" vertex="1">
          <mxGeometry x="1400" y="-460" width="120" height="60" as="geometry" />
        </mxCell>
        <mxCell id="PjaqXVNd-_tq1s7yIGA_-54" style="rounded=0;orthogonalLoop=1;jettySize=auto;html=1;" parent="1" source="1gMiAJtmRg7pK_HbUT3S-38" target="PjaqXVNd-_tq1s7yIGA_-53" edge="1">
          <mxGeometry relative="1" as="geometry">
            <mxPoint x="1074" y="90" as="sourcePoint" />
            <mxPoint x="1181" y="430" as="targetPoint" />
          </mxGeometry>
        </mxCell>
        <mxCell id="PjaqXVNd-_tq1s7yIGA_-55" style="rounded=0;orthogonalLoop=1;jettySize=auto;html=1;" parent="1" source="1gMiAJtmRg7pK_HbUT3S-37" target="PjaqXVNd-_tq1s7yIGA_-33" edge="1">
          <mxGeometry relative="1" as="geometry">
            <mxPoint x="170" y="-229" as="sourcePoint" />
            <mxPoint x="556" y="55" as="targetPoint" />
          </mxGeometry>
        </mxCell>
        <mxCell id="PjaqXVNd-_tq1s7yIGA_-56" value="Skills Testing System" style="shape=umlActor;verticalLabelPosition=bottom;verticalAlign=top;html=1;" parent="1" vertex="1">
          <mxGeometry x="490" y="620" width="30" height="60" as="geometry" />
        </mxCell>
        <mxCell id="PjaqXVNd-_tq1s7yIGA_-57" style="rounded=0;orthogonalLoop=1;jettySize=auto;html=1;" parent="1" source="PjaqXVNd-_tq1s7yIGA_-56" target="PjaqXVNd-_tq1s7yIGA_-10" edge="1">
          <mxGeometry relative="1" as="geometry">
            <mxPoint x="1210" y="1120" as="sourcePoint" />
            <mxPoint x="810" y="1120" as="targetPoint" />
          </mxGeometry>
        </mxCell>
        <mxCell id="PjaqXVNd-_tq1s7yIGA_-58" value="Project participant" style="shape=umlActor;verticalLabelPosition=bottom;verticalAlign=top;html=1;" parent="1" vertex="1">
          <mxGeometry x="2000" y="-300" width="30" height="60" as="geometry" />
        </mxCell>
        <mxCell id="PjaqXVNd-_tq1s7yIGA_-59" value="Project Administrator" style="shape=umlActor;verticalLabelPosition=bottom;verticalAlign=top;html=1;" parent="1" vertex="1">
          <mxGeometry x="2000" y="-820" width="30" height="60" as="geometry" />
        </mxCell>
        <mxCell id="PjaqXVNd-_tq1s7yIGA_-60" style="rounded=0;orthogonalLoop=1;jettySize=auto;html=1;" parent="1" source="PjaqXVNd-_tq1s7yIGA_-58" target="PjaqXVNd-_tq1s7yIGA_-53" edge="1">
          <mxGeometry relative="1" as="geometry">
            <mxPoint x="1090" y="-1484" as="sourcePoint" />
            <mxPoint x="787" y="-959" as="targetPoint" />
          </mxGeometry>
        </mxCell>
        <mxCell id="PjaqXVNd-_tq1s7yIGA_-61" style="rounded=0;orthogonalLoop=1;jettySize=auto;html=1;" parent="1" source="PjaqXVNd-_tq1s7yIGA_-58" target="PjaqXVNd-_tq1s7yIGA_-63" edge="1">
          <mxGeometry relative="1" as="geometry">
            <mxPoint x="1140" y="-920" as="sourcePoint" />
            <mxPoint x="1290" y="-1040" as="targetPoint" />
          </mxGeometry>
        </mxCell>
        <mxCell id="PjaqXVNd-_tq1s7yIGA_-62" style="rounded=0;orthogonalLoop=1;jettySize=auto;html=1;" parent="1" source="PjaqXVNd-_tq1s7yIGA_-58" target="PjaqXVNd-_tq1s7yIGA_-64" edge="1">
          <mxGeometry relative="1" as="geometry">
            <mxPoint x="1170" y="-931" as="sourcePoint" />
            <mxPoint x="1350" y="-1010" as="targetPoint" />
          </mxGeometry>
        </mxCell>
        <mxCell id="PjaqXVNd-_tq1s7yIGA_-63" value="leave project" style="ellipse;whiteSpace=wrap;html=1;" parent="1" vertex="1">
          <mxGeometry x="1400" y="-140" width="120" height="60" as="geometry" />
        </mxCell>
        <mxCell id="PjaqXVNd-_tq1s7yIGA_-64" value="watch commit history" style="ellipse;whiteSpace=wrap;html=1;" parent="1" vertex="1">
          <mxGeometry x="1400" y="-380" width="120" height="60" as="geometry" />
        </mxCell>
        <mxCell id="PjaqXVNd-_tq1s7yIGA_-68" style="rounded=0;orthogonalLoop=1;jettySize=auto;html=1;" parent="1" source="PjaqXVNd-_tq1s7yIGA_-58" target="PjaqXVNd-_tq1s7yIGA_-67" edge="1">
          <mxGeometry relative="1" as="geometry">
            <mxPoint x="1140" y="-913" as="sourcePoint" />
            <mxPoint x="795" y="-760" as="targetPoint" />
          </mxGeometry>
        </mxCell>
        <mxCell id="PjaqXVNd-_tq1s7yIGA_-69" value="give project roles" style="ellipse;whiteSpace=wrap;html=1;" parent="1" vertex="1">
          <mxGeometry x="1400" y="-740" width="120" height="60" as="geometry" />
        </mxCell>
        <mxCell id="PjaqXVNd-_tq1s7yIGA_-70" value="fill project desciption" style="ellipse;whiteSpace=wrap;html=1;" parent="1" vertex="1">
          <mxGeometry x="1400" y="-820" width="120" height="60" as="geometry" />
        </mxCell>
        <mxCell id="PjaqXVNd-_tq1s7yIGA_-71" value="rate participants" style="ellipse;whiteSpace=wrap;html=1;" parent="1" vertex="1">
          <mxGeometry x="1400" y="-1060" width="120" height="60" as="geometry" />
        </mxCell>
        <mxCell id="PjaqXVNd-_tq1s7yIGA_-72" value="setup project workspace" style="ellipse;whiteSpace=wrap;html=1;" parent="1" vertex="1">
          <mxGeometry x="1400" y="-900" width="120" height="60" as="geometry" />
        </mxCell>
        <mxCell id="PjaqXVNd-_tq1s7yIGA_-73" value="deploy project" style="ellipse;whiteSpace=wrap;html=1;" parent="1" vertex="1">
          <mxGeometry x="1400" y="-980" width="120" height="60" as="geometry" />
        </mxCell>
        <mxCell id="PjaqXVNd-_tq1s7yIGA_-74" style="rounded=0;orthogonalLoop=1;jettySize=auto;html=1;" parent="1" source="1gMiAJtmRg7pK_HbUT3S-38" target="PjaqXVNd-_tq1s7yIGA_-64" edge="1">
          <mxGeometry relative="1" as="geometry">
            <mxPoint x="1500" y="66" as="sourcePoint" />
            <mxPoint x="1197" y="591" as="targetPoint" />
          </mxGeometry>
        </mxCell>
        <mxCell id="PjaqXVNd-_tq1s7yIGA_-75" value="chat with team" style="ellipse;whiteSpace=wrap;html=1;" parent="1" vertex="1">
          <mxGeometry x="1400" y="-220" width="120" height="60" as="geometry" />
        </mxCell>
        <mxCell id="PjaqXVNd-_tq1s7yIGA_-76" style="rounded=0;orthogonalLoop=1;jettySize=auto;html=1;" parent="1" source="PjaqXVNd-_tq1s7yIGA_-58" target="PjaqXVNd-_tq1s7yIGA_-75" edge="1">
          <mxGeometry relative="1" as="geometry">
            <mxPoint x="1140" y="-909" as="sourcePoint" />
            <mxPoint x="835" y="-694" as="targetPoint" />
          </mxGeometry>
        </mxCell>
        <mxCell id="PjaqXVNd-_tq1s7yIGA_-79" value="" style="rounded=0;orthogonalLoop=1;jettySize=auto;html=1;" parent="1" source="PjaqXVNd-_tq1s7yIGA_-58" target="PjaqXVNd-_tq1s7yIGA_-67" edge="1">
          <mxGeometry relative="1" as="geometry">
            <mxPoint x="160" y="-798" as="sourcePoint" />
            <mxPoint x="932" y="-698" as="targetPoint" />
          </mxGeometry>
        </mxCell>
        <mxCell id="PjaqXVNd-_tq1s7yIGA_-67" value="comment commits" style="ellipse;whiteSpace=wrap;html=1;" parent="1" vertex="1">
          <mxGeometry x="1400" y="-300" width="120" height="60" as="geometry" />
        </mxCell>
        <mxCell id="PjaqXVNd-_tq1s7yIGA_-80" value="Backup system state" style="ellipse;whiteSpace=wrap;html=1;" parent="1" vertex="1">
          <mxGeometry x="1000" y="-584" width="120" height="60" as="geometry" />
        </mxCell>
        <mxCell id="PjaqXVNd-_tq1s7yIGA_-81" style="rounded=0;orthogonalLoop=1;jettySize=auto;html=1;" parent="1" source="1gMiAJtmRg7pK_HbUT3S-38" target="PjaqXVNd-_tq1s7yIGA_-80" edge="1">
          <mxGeometry relative="1" as="geometry">
            <mxPoint x="1530" y="24" as="sourcePoint" />
            <mxPoint x="2025" y="-503" as="targetPoint" />
          </mxGeometry>
        </mxCell>
        <mxCell id="PjaqXVNd-_tq1s7yIGA_-82" style="rounded=0;orthogonalLoop=1;jettySize=auto;html=1;" parent="1" source="PjaqXVNd-_tq1s7yIGA_-59" target="PjaqXVNd-_tq1s7yIGA_-73" edge="1">
          <mxGeometry relative="1" as="geometry">
            <mxPoint x="2080" y="20" as="sourcePoint" />
            <mxPoint x="2559" y="-612" as="targetPoint" />
          </mxGeometry>
        </mxCell>
        <mxCell id="PjaqXVNd-_tq1s7yIGA_-83" style="rounded=0;orthogonalLoop=1;jettySize=auto;html=1;" parent="1" source="PjaqXVNd-_tq1s7yIGA_-59" target="PjaqXVNd-_tq1s7yIGA_-71" edge="1">
          <mxGeometry relative="1" as="geometry">
            <mxPoint x="2050" y="-651" as="sourcePoint" />
            <mxPoint x="1809" y="-674" as="targetPoint" />
          </mxGeometry>
        </mxCell>
        <mxCell id="PjaqXVNd-_tq1s7yIGA_-84" style="rounded=0;orthogonalLoop=1;jettySize=auto;html=1;" parent="1" source="PjaqXVNd-_tq1s7yIGA_-59" target="PjaqXVNd-_tq1s7yIGA_-72" edge="1">
          <mxGeometry relative="1" as="geometry">
            <mxPoint x="2050" y="-662" as="sourcePoint" />
            <mxPoint x="1853" y="-815" as="targetPoint" />
          </mxGeometry>
        </mxCell>
        <mxCell id="PjaqXVNd-_tq1s7yIGA_-85" style="rounded=0;orthogonalLoop=1;jettySize=auto;html=1;" parent="1" source="PjaqXVNd-_tq1s7yIGA_-59" target="PjaqXVNd-_tq1s7yIGA_-70" edge="1">
          <mxGeometry relative="1" as="geometry">
            <mxPoint x="2050" y="-674" as="sourcePoint" />
            <mxPoint x="1978" y="-791" as="targetPoint" />
          </mxGeometry>
        </mxCell>
        <mxCell id="PjaqXVNd-_tq1s7yIGA_-86" style="rounded=0;orthogonalLoop=1;jettySize=auto;html=1;" parent="1" source="PjaqXVNd-_tq1s7yIGA_-59" target="PjaqXVNd-_tq1s7yIGA_-69" edge="1">
          <mxGeometry relative="1" as="geometry">
            <mxPoint x="2050" y="-655" as="sourcePoint" />
            <mxPoint x="1721" y="-754" as="targetPoint" />
          </mxGeometry>
        </mxCell>
        <mxCell id="PjaqXVNd-_tq1s7yIGA_-93" value="add participants" style="ellipse;whiteSpace=wrap;html=1;" parent="1" vertex="1">
          <mxGeometry x="1400" y="-580" width="120" height="60" as="geometry" />
        </mxCell>
        <mxCell id="PjaqXVNd-_tq1s7yIGA_-94" value="kick participants" style="ellipse;whiteSpace=wrap;html=1;" parent="1" vertex="1">
          <mxGeometry x="1400" y="-660" width="120" height="60" as="geometry" />
        </mxCell>
        <mxCell id="PjaqXVNd-_tq1s7yIGA_-95" style="rounded=0;orthogonalLoop=1;jettySize=auto;html=1;" parent="1" source="PjaqXVNd-_tq1s7yIGA_-59" target="PjaqXVNd-_tq1s7yIGA_-93" edge="1">
          <mxGeometry relative="1" as="geometry">
            <mxPoint x="2067" y="-620" as="sourcePoint" />
            <mxPoint x="2078" y="-420" as="targetPoint" />
          </mxGeometry>
        </mxCell>
        <mxCell id="PjaqXVNd-_tq1s7yIGA_-96" style="rounded=0;orthogonalLoop=1;jettySize=auto;html=1;" parent="1" source="PjaqXVNd-_tq1s7yIGA_-59" target="PjaqXVNd-_tq1s7yIGA_-94" edge="1">
          <mxGeometry relative="1" as="geometry">
            <mxPoint x="2067" y="-620" as="sourcePoint" />
            <mxPoint x="2088" y="-330" as="targetPoint" />
          </mxGeometry>
        </mxCell>
        <mxCell id="VDb74l1xp-A21fzeom6w-1" value="" style="endArrow=block;endSize=16;endFill=0;html=1;rounded=0;" edge="1" parent="1" source="PjaqXVNd-_tq1s7yIGA_-59" target="PjaqXVNd-_tq1s7yIGA_-58">
          <mxGeometry width="160" relative="1" as="geometry">
            <mxPoint x="450" y="-1040" as="sourcePoint" />
            <mxPoint x="610" y="-1040" as="targetPoint" />
          </mxGeometry>
        </mxCell>
        <mxCell id="VDb74l1xp-A21fzeom6w-3" value="" style="endArrow=block;endSize=16;endFill=0;html=1;rounded=0;" edge="1" parent="1" source="1gMiAJtmRg7pK_HbUT3S-38" target="1gMiAJtmRg7pK_HbUT3S-37">
          <mxGeometry width="160" relative="1" as="geometry">
            <mxPoint x="2065" y="-760" as="sourcePoint" />
            <mxPoint x="2065" y="-260" as="targetPoint" />
          </mxGeometry>
        </mxCell>
        <mxCell id="VDb74l1xp-A21fzeom6w-6" value="" style="endArrow=block;endSize=16;endFill=0;html=1;rounded=0;" edge="1" parent="1" source="PjaqXVNd-_tq1s7yIGA_-58" target="1gMiAJtmRg7pK_HbUT3S-2">
          <mxGeometry width="160" relative="1" as="geometry">
            <mxPoint x="1960" y="-310" as="sourcePoint" />
            <mxPoint x="-10" y="690" as="targetPoint" />
          </mxGeometry>
        </mxCell>
      </root>
    </mxGraphModel>
  </diagram>
</mxfile>
